<?xml version="1.0" standalone="no"?>
<!DOCTYPE svg PUBLIC "-//W3C//DTD SVG 20010904//EN"
 "http://www.w3.org/TR/2001/REC-SVG-20010904/DTD/svg10.dtd">
<svg version="1.0" xmlns="http://www.w3.org/2000/svg"
 width="512.000000pt" height="512.000000pt" viewBox="0 0 512.000000 512.000000"
 preserveAspectRatio="xMidYMid meet">
<metadata>
Created by potrace 1.14, written by Peter Selinger 2001-2017
</metadata>
<g transform="translate(0.000000,512.000000) scale(0.100000,-0.100000)"
fill="#000000" stroke="none">
<path d="M2475 4899 c-27 -12 -57 -23 -65 -25 -8 -2 -46 -15 -85 -30 -38 -14
-117 -43 -175 -64 -397 -143 -891 -323 -920 -335 -19 -8 -118 -44 -220 -81
-102 -37 -270 -98 -375 -136 -104 -38 -202 -73 -217 -78 -67 -21 -66 -26 2
-58 137 -63 240 -112 365 -172 258 -124 320 -152 340 -152 11 1 334 115 718
255 l698 255 67 -25 c37 -14 76 -29 87 -33 11 -5 40 -16 65 -24 51 -17 64 -22
705 -256 259 -95 479 -173 490 -172 11 0 96 36 189 81 92 45 169 81 171 81 2
0 340 161 382 182 13 6 21 13 20 15 -4 3 -450 167 -497 183 -14 4 -169 61
-345 125 -352 129 -506 185 -605 220 -111 39 -264 96 -297 111 -17 8 -34 14
-38 14 -8 0 -252 87 -280 100 -27 12 -114 40 -123 39 -4 0 -29 -9 -57 -20z"/>
<path d="M337 4032 c-2 -4 -2 -18 -1 -32 2 -21 7 -152 19 -430 2 -36 6 -126 9
-200 14 -294 17 -349 21 -445 7 -160 16 -374 20 -450 2 -38 6 -131 9 -205 3
-74 8 -180 11 -235 4 -55 8 -152 10 -215 2 -63 4 -115 5 -115 0 0 3 -58 6
-130 3 -71 6 -136 7 -143 0 -8 66 -56 146 -109 80 -52 238 -155 351 -229 113
-74 221 -143 240 -154 19 -11 89 -56 155 -99 66 -44 230 -150 365 -237 135
-87 247 -162 248 -166 2 -4 7 -8 12 -8 4 0 124 -76 266 -168 143 -93 265 -172
272 -176 9 -6 12 77 12 402 l0 409 -127 84 c-147 95 -320 208 -443 287 -47 30
-137 89 -200 130 -63 41 -137 89 -165 107 -27 18 -95 61 -150 97 -55 36 -154
100 -220 143 -66 42 -122 79 -125 82 -2 2 -5 45 -6 96 -1 51 -5 180 -8 287
-12 320 -15 415 -21 625 -3 110 -8 243 -10 295 -3 52 -7 197 -11 322 -3 125
-7 236 -8 245 -2 18 -37 38 -221 125 -55 26 -172 82 -260 124 -185 88 -203 96
-208 86z"/>
<path d="M4675 3995 c-49 -24 -130 -63 -180 -86 -49 -24 -151 -72 -225 -107
-74 -35 -145 -68 -157 -73 -19 -7 -23 -17 -24 -56 -3 -113 -7 -250 -13 -423
-4 -102 -9 -239 -11 -305 -4 -123 -10 -309 -21 -615 -7 -209 -12 -353 -13
-438 l-1 -63 -157 -102 c-87 -57 -206 -134 -266 -172 -59 -39 -156 -102 -215
-140 -59 -39 -260 -169 -447 -290 -187 -120 -342 -220 -344 -222 -5 -4 -5
-812 0 -817 2 -2 38 19 79 46 74 48 206 133 370 240 47 30 144 93 215 139 121
80 228 149 677 439 97 63 299 194 447 290 l270 175 5 50 c4 28 8 122 11 210 3
88 8 187 10 220 2 33 6 132 10 220 3 88 8 194 10 235 2 41 7 140 10 220 3 80
8 181 10 225 3 44 7 139 10 210 3 72 7 168 9 215 12 228 19 381 21 445 1 39 6
139 9 223 4 83 4 152 -1 151 -4 0 -48 -20 -98 -44z"/>
<path d="M2887 3814 c-99 -25 -155 -84 -165 -169 l-4 -40 23 29 c40 51 136 72
206 45 30 -11 105 -83 141 -136 112 -161 64 -389 -123 -578 -49 -50 -144 -120
-194 -143 -88 -41 -203 -28 -611 68 -310 72 -449 95 -580 95 -114 -1 -180 -24
-240 -85 -90 -89 -106 -181 -87 -485 5 -71 11 -167 13 -213 2 -45 6 -104 8
-130 3 -26 5 -63 5 -84 1 -34 5 -39 84 -89 45 -29 141 -92 213 -139 72 -48
138 -90 145 -93 8 -4 68 -42 134 -86 66 -44 156 -103 200 -131 44 -28 134 -86
200 -130 66 -43 160 -104 208 -134 l89 -56 56 35 c32 20 104 67 162 105 58 38
134 88 170 110 92 58 383 247 395 257 6 5 28 20 50 33 59 35 291 186 357 231
31 22 59 39 63 39 3 0 13 6 20 14 13 13 18 55 30 261 9 154 16 271 21 335 10
139 12 378 3 430 -5 30 -11 71 -14 90 -12 75 -16 91 -44 178 -55 166 -116 270
-222 373 -106 103 -228 158 -434 195 -70 12 -228 11 -278 -2z"/>
</g>
</svg>
